REM DIRINDEX 1\2\5,1\2\6,1\2\7,1\2\8,1\3\9,1\3\10,1\3\11,1\4\12,1\4\13,1\4\14,1\4\15,1\4\16
REM DIRNAME cjc034,folder01,folder02,folder03,folder04,folder05,folder06,folder07,folder08,folder09,folder10,folder11,folder12,folder13,folder14,folder15
TITLE ""
FILE "1200_2_sec02_0582_0603.mp3" MP3
  TRACK 01 AUDIO
    TITLE "0:"
    INDEX 01 00:00:00
  TRACK 02 AUDIO
    TITLE "10:cjc034_01192"
    INDEX 01 00:00:15
  TRACK 03 AUDIO
    TITLE "0:"
    INDEX 01 00:01:30
  TRACK 04 AUDIO
    TITLE "9:cjc034_01193"
    INDEX 01 00:01:46
  TRACK 05 AUDIO
    TITLE "0:"
    INDEX 01 00:03:04
  TRACK 06 AUDIO
    TITLE "10:cjc034_01194"
    INDEX 01 00:04:03
  TRACK 07 AUDIO
    TITLE "0:"
    INDEX 01 00:06:73
  TRACK 08 AUDIO
    TITLE "9:cjc034_01195"
    INDEX 01 00:07:19
  TRACK 09 AUDIO
    TITLE "0:"
    INDEX 01 00:10:63
  TRACK 10 AUDIO
    TITLE "10:cjc034_01196"
    INDEX 01 00:11:58
  TRACK 11 AUDIO
    TITLE "0:"
    INDEX 01 00:14:64
  TRACK 12 AUDIO
    TITLE "9:cjc034_01197"
    INDEX 01 00:15:09
  TRACK 13 AUDIO
    TITLE "0:"
    INDEX 01 00:16:36
  TRACK 14 AUDIO
    TITLE "10:cjc034_01198"
    INDEX 01 00:17:37
  TRACK 15 AUDIO
    TITLE "0:"
    INDEX 01 00:18:46
  TRACK 16 AUDIO
    TITLE "9:cjc034_01199"
    INDEX 01 00:18:60
  TRACK 17 AUDIO
    TITLE "0:"
    INDEX 01 00:20:28
  TRACK 18 AUDIO
    TITLE "10:cjc034_01200"
    INDEX 01 00:21:25
  TRACK 19 AUDIO
    TITLE "0:"
    INDEX 01 00:24:29
  TRACK 20 AUDIO
    TITLE "9:cjc034_01201"
    INDEX 01 00:24:49
  TRACK 21 AUDIO
    TITLE "0:"
    INDEX 01 00:26:18
  TRACK 22 AUDIO
    TITLE "10:cjc034_01202"
    INDEX 01 00:27:16
  TRACK 23 AUDIO
    TITLE "0:"
    INDEX 01 00:28:25
  TRACK 24 AUDIO
    TITLE "9:cjc034_01203"
    INDEX 01 00:28:43
  TRACK 25 AUDIO
    TITLE "0:"
    INDEX 01 00:30:06
  TRACK 26 AUDIO
    TITLE "10:cjc034_01204"
    INDEX 01 00:31:04
  TRACK 27 AUDIO
    TITLE "0:"
    INDEX 01 00:34:04
  TRACK 28 AUDIO
    TITLE "9:cjc034_01205"
    INDEX 01 00:34:20
  TRACK 29 AUDIO
    TITLE "0:"
    INDEX 01 00:35:47
  TRACK 30 AUDIO
    TITLE "10:cjc034_01206"
    INDEX 01 00:36:46
  TRACK 31 AUDIO
    TITLE "0:"
    INDEX 01 00:37:50
  TRACK 32 AUDIO
    TITLE "9:cjc034_01207"
    INDEX 01 00:37:71
  TRACK 33 AUDIO
    TITLE "0:"
    INDEX 01 00:41:08
  TRACK 34 AUDIO
    TITLE "10:cjc034_01208"
    INDEX 01 00:42:00
  TRACK 35 AUDIO
    TITLE "0:"
    INDEX 01 00:43:54
  TRACK 36 AUDIO
    TITLE "9:cjc034_01209"
    INDEX 01 00:43:72
  TRACK 37 AUDIO
    TITLE "0:"
    INDEX 01 00:45:37
  TRACK 38 AUDIO
    TITLE "10:cjc034_01210"
    INDEX 01 00:46:35
  TRACK 39 AUDIO
    TITLE "0:"
    INDEX 01 00:49:35
  TRACK 40 AUDIO
    TITLE "9:cjc034_01211"
    INDEX 01 00:49:55
  TRACK 41 AUDIO
    TITLE "0:"
    INDEX 01 00:51:05
  TRACK 42 AUDIO
    TITLE "10:cjc034_01212"
    INDEX 01 00:52:04
  TRACK 43 AUDIO
    TITLE "0:"
    INDEX 01 00:53:41
  TRACK 44 AUDIO
    TITLE "9:cjc034_01213"
    INDEX 01 00:53:64
  TRACK 45 AUDIO
    TITLE "0:"
    INDEX 01 00:55:36
  TRACK 46 AUDIO
    TITLE "10:cjc034_01214"
    INDEX 01 00:56:35
  TRACK 47 AUDIO
    TITLE "0:"
    INDEX 01 00:58:01
  TRACK 48 AUDIO
    TITLE "9:cjc034_01215"
    INDEX 01 00:58:24
  TRACK 49 AUDIO
    TITLE "0:"
    INDEX 01 00:59:61
  TRACK 50 AUDIO
    TITLE "10:cjc034_01216"
    INDEX 01 01:00:55
  TRACK 51 AUDIO
    TITLE "0:"
    INDEX 01 01:01:70
  TRACK 52 AUDIO
    TITLE "9:cjc034_01217"
    INDEX 01 01:02:18
  TRACK 53 AUDIO
    TITLE "0:"
    INDEX 01 01:03:71
  TRACK 54 AUDIO
    TITLE "10:cjc034_01218"
    INDEX 01 01:04:68
  TRACK 55 AUDIO
    TITLE "0:"
    INDEX 01 01:06:04
  TRACK 56 AUDIO
    TITLE "9:cjc034_01219"
    INDEX 01 01:06:22
  TRACK 57 AUDIO
    TITLE "0:"
    INDEX 01 01:08:33
  TRACK 58 AUDIO
    TITLE "10:cjc034_01220"
    INDEX 01 01:09:32
  TRACK 59 AUDIO
    TITLE "0:"
    INDEX 01 01:10:43
  TRACK 60 AUDIO
    TITLE "9:cjc034_01221"
    INDEX 01 01:10:61
  TRACK 61 AUDIO
    TITLE "0:"
    INDEX 01 01:12:24
  TRACK 62 AUDIO
    TITLE "10:cjc034_01222"
    INDEX 01 01:13:22
  TRACK 63 AUDIO
    TITLE "0:"
    INDEX 01 01:16:52
  TRACK 64 AUDIO
    TITLE "9:cjc034_01223"
    INDEX 01 01:16:71
  TRACK 65 AUDIO
    TITLE "0:"
    INDEX 01 01:18:47
  TRACK 66 AUDIO
    TITLE "10:cjc034_01224"
    INDEX 01 01:19:46
  TRACK 67 AUDIO
    TITLE "0:"
    INDEX 01 01:21:04
  TRACK 68 AUDIO
    TITLE "9:cjc034_01225"
    INDEX 01 01:21:21
  TRACK 69 AUDIO
    TITLE "0:"
    INDEX 01 01:25:31
  TRACK 70 AUDIO
    TITLE "10:cjc034_01226"
    INDEX 01 01:26:29
  TRACK 71 AUDIO
    TITLE "0:"
    INDEX 01 01:28:00
  TRACK 72 AUDIO
    TITLE "9:cjc034_01227"
    INDEX 01 01:28:18
  TRACK 73 AUDIO
    TITLE "0:"
    INDEX 01 01:31:57
  TRACK 74 AUDIO
    TITLE "10:cjc034_01228"
    INDEX 01 01:32:55
  TRACK 75 AUDIO
    TITLE "0:"
    INDEX 01 01:33:72
  TRACK 76 AUDIO
    TITLE "9:cjc034_01229"
    INDEX 01 01:34:24
  TRACK 77 AUDIO
    TITLE "0:"
    INDEX 01 01:35:47
  TRACK 78 AUDIO
    TITLE "10:cjc034_01230"
    INDEX 01 01:36:43
  TRACK 79 AUDIO
    TITLE "0:"
    INDEX 01 01:38:08
  TRACK 80 AUDIO
    TITLE "9:cjc034_01231"
    INDEX 01 01:38:30
  TRACK 81 AUDIO
    TITLE "0:"
    INDEX 01 01:39:70
  TRACK 82 AUDIO
    TITLE "10:cjc034_01232"
    INDEX 01 01:40:70
  TRACK 83 AUDIO
    TITLE "0:"
    INDEX 01 01:42:41
  TRACK 84 AUDIO
    TITLE "9:cjc034_01233"
    INDEX 01 01:42:59
  TRACK 85 AUDIO
    TITLE "0:"
    INDEX 01 01:44:54
  TRACK 86 AUDIO
    TITLE "10:cjc034_01234"
    INDEX 01 01:45:53
  TRACK 87 AUDIO
    TITLE "0:"
    INDEX 01 01:47:64
  TRACK 88 AUDIO
    TITLE "9:cjc034_01235"
    INDEX 01 01:48:09
  TRACK 89 AUDIO
    TITLE "0:"
    INDEX 01 01:49:49
